<?xml version="1.0" encoding="utf-8"?>
<!-- Generator: Adobe Illustrator 27.9.0, SVG Export Plug-In . SVG Version: 6.00 Build 0)  -->
<svg version="1.1" id="Laag_1" xmlns="http://www.w3.org/2000/svg" xmlns:xlink="http://www.w3.org/1999/xlink" x="0px" y="0px"
	 viewBox="0 0 595.3 841.9" style="enable-background:new 0 0 595.3 841.9;" xml:space="preserve">
<style type="text/css">
	.st0{fill:#9CD7F4;}
</style>
<g>
	<path class="st0" d="M56.3,68.3L39.4,86.6c0,0,0,0,0,0v0.2c-2.6,2.5-4.2,5.9-4.2,9.7c0,3.8,1.6,7.2,4.2,9.7v0.1c0,0,0,0,0,0
		l16.8,18.3c4.3,4.7,10.5,7.2,16.9,6.7l75.8-5.4c3.4-0.2,5.9-3.4,5.1-6.9c-0.6-2.6-3-4.4-5.7-4.4l-70.4-0.2c-3.1,0-5.7-2.5-5.7-5.7
		v0c0-3.1,2.5-5.7,5.7-5.7l70.6,0.2c2.7,0,4.8-1.9,5.4-4.4l0.2,0l0-1.2l0-1.8l0-1.2l-0.2,0c-0.6-2.5-2.7-4.4-5.4-4.4L78,89.9
		c-3.1,0-5.7-2.5-5.7-5.7v0c0-3.1,2.5-5.7,5.7-5.7l70.4,0.2c2.7,0,5.1-1.7,5.7-4.4c0.8-3.5-1.7-6.7-5.1-6.9l-75.8-5.8
		C66.9,61.2,60.7,63.6,56.3,68.3z"/>
	<path class="st0" d="M0.9,86.9h37.5c4.2,0,7.6,3.4,7.6,7.6v3.9c0,4.2-3.4,7.6-7.6,7.6H0.9c-4.2,0-7.6-3.4-7.6-7.6v-3.9
		C-6.7,90.3-3.3,86.9,0.9,86.9z"/>
</g>
</svg>
