<?xml version="1.0" encoding="utf-8"?>
<!-- Generator: Adobe Illustrator 27.9.0, SVG Export Plug-In . SVG Version: 6.00 Build 0)  -->
<svg version="1.1" id="Laag_1" xmlns="http://www.w3.org/2000/svg" xmlns:xlink="http://www.w3.org/1999/xlink" x="0px" y="0px"
	 viewBox="0 0 595.3 841.9" style="enable-background:new 0 0 595.3 841.9;" xml:space="preserve">
<style type="text/css">
	.st0{fill:#FFFFFF;}
	.st1{fill:url(#SVGID_1_);}
	
		.st2{fill:none;stroke:url(#SVGID_00000062160956713027216140000003294399016813885828_);stroke-width:29;stroke-linecap:square;stroke-miterlimit:10;}
	.st3{fill:url(#SVGID_00000085939579149704297110000013233283949055691664_);}
	.st4{fill:url(#SVGID_00000108309264943377490140000001245088223015269819_);}
</style>
<line class="st0" x1="595.3" y1="302.1" x2="595.3" y2="28.9"/>
<line class="st0" x1="595.3" y1="301.9" x2="595.3" y2="179.9"/>
<g>
	<g>
		
			<image style="overflow:visible;" width="295.9" height="552.4" xlink:href="9A91C336BFB7D904.png"  transform="matrix(1 0 0 1 418.2281 26.6463)"/>
	</g>
</g>
<linearGradient id="SVGID_1_" gradientUnits="userSpaceOnUse" x1="422.7964" y1="613.3796" x2="565.1279" y2="613.3796">
	<stop  offset="0.2935" style="stop-color:#312782"/>
	<stop  offset="0.6875" style="stop-color:#DA408F"/>
</linearGradient>
<path class="st1" d="M551.5,535l-37.3-34.5l0,0h-0.4c-5.1-5.4-12-8.7-19.7-8.7s-14.6,3.3-19.7,8.7H474l0,0l-37.4,34.3
	c-9.6,8.8-14.6,21.5-13.7,34.5L434,723.9c0.5,6.9,7,12,14.1,10.4c5.3-1.2,8.9-6.2,8.9-11.7l0.4-143.6c0-6.4,5.2-11.6,11.6-11.6l0,0
	c6.4,0,11.5,5.2,11.5,11.6l-0.4,144.1c0,5.5,3.9,9.9,9,11.1v0.5h2.5h3.7h2.5v-0.5c5.1-1.2,9-5.5,9.1-11l0.4-144
	c0-6.4,5.2-11.6,11.6-11.6l0,0c6.4,0,11.5,5.2,11.5,11.6L530,722.9c0,5.5,3.6,10.5,8.9,11.7c7.1,1.6,13.6-3.5,14.2-10.4L565,569.5
	C566,556.5,561.1,543.8,551.5,535z"/>
<linearGradient id="SVGID_00000051367477410998482200000002108803874022410149_" gradientUnits="userSpaceOnUse" x1="165.1601" y1="590.0618" x2="330.4408" y2="590.0618">
	<stop  offset="0" style="stop-color:#DA408F"/>
	<stop  offset="1" style="stop-color:#312782"/>
</linearGradient>
<path style="fill:none;stroke:url(#SVGID_00000051367477410998482200000002108803874022410149_);stroke-width:29;stroke-linecap:square;stroke-miterlimit:10;" d="
	M182,483.5c51.8-9.4,108.1,22.2,127,71.4c18.8,49.2-1.9,110.4-46.7,138"/>
<linearGradient id="SVGID_00000000205885493275350280000004842078004471111058_" gradientUnits="userSpaceOnUse" x1="167.5986" y1="623.3167" x2="238.7643" y2="623.3167" gradientTransform="matrix(0.4008 0.9161 -0.9161 0.4008 696.3211 284.1867)">
	<stop  offset="0.2935" style="stop-color:#312782"/>
	<stop  offset="0.6875" style="stop-color:#DA408F"/>
</linearGradient>
<path style="fill:url(#SVGID_00000000205885493275350280000004842078004471111058_);" d="M254.1,730.8l8.3-24l0,0l-0.1-0.2
	c1.5-3.4,1.6-7.2,0-10.8s-4.4-6-7.9-7.3l-0.1-0.2l0,0l-23.2-10.3c-6-2.6-12.8-2.4-18.5,0.6l-68.6,36.1c-3.1,1.6-4.1,5.6-1.9,8.5
	c1.6,2.2,4.6,2.8,7.1,1.7l65.9-28.6c2.9-1.3,6.4,0.1,7.6,3l0,0c1.3,2.9-0.1,6.3-3,7.6l-66.1,28.7c-2.5,1.1-3.8,3.8-3.3,6.3l-0.2,0.1
	l0.5,1.1l0.7,1.7l0.5,1.1l0.2-0.1c1.6,2.1,4.3,3,6.9,2l66-28.7c2.9-1.3,6.4,0.1,7.6,3l0,0c1.3,2.9-0.1,6.3-3,7.6l-65.9,28.6
	c-2.5,1.1-4.1,3.8-3.6,6.4c0.7,3.6,4.3,5.5,7.6,4.4l73.2-25.6C247.2,741.8,252,737,254.1,730.8z"/>
<g>
	<g>
		<g>
			
				<image style="overflow:visible;" width="93.3" height="133.2" xlink:href="9A91C336BFB7D905.png"  transform="matrix(1 0 0 1 120.2685 204.6626)"/>
		</g>
	</g>
	
		<linearGradient id="SVGID_00000089549509469824735450000018099992429077602957_" gradientUnits="userSpaceOnUse" x1="-188.7474" y1="526.4271" x2="-148.4101" y2="526.4271" gradientTransform="matrix(0.4008 0.9161 -0.9161 0.4008 696.3211 284.1867)">
		<stop  offset="0.313" style="stop-color:#312782"/>
		<stop  offset="0.659" style="stop-color:#DA408F"/>
	</linearGradient>
	<path style="fill:url(#SVGID_00000089549509469824735450000018099992429077602957_);" d="M173.3,346.8l4.7-13.6l0,0l0-0.1
		c0.8-1.9,0.9-4.1,0-6.1c-0.9-2-2.5-3.4-4.5-4.1l0-0.1l0,0l-13.2-5.8c-3.4-1.5-7.2-1.3-10.5,0.4l-38.9,20.4
		c-1.7,0.9-2.3,3.2-1.1,4.8c0.9,1.2,2.6,1.6,4,1l37.3-16.2c1.7-0.7,3.6,0,4.3,1.7l0,0c0.7,1.7,0,3.6-1.7,4.3l-37.5,16.3
		c-1.4,0.6-2.1,2.1-1.9,3.6l-0.1,0.1l0.3,0.6l0.4,1l0.3,0.6l0.1-0.1c0.9,1.2,2.5,1.7,3.9,1.1l37.4-16.3c1.7-0.7,3.6,0,4.3,1.7l0,0
		c0.7,1.7,0,3.6-1.7,4.3l-37.4,16.2c-1.4,0.6-2.3,2.1-2,3.6c0.4,2,2.5,3.1,4.3,2.5l41.5-14.5C169.4,353,172.1,350.3,173.3,346.8z"/>
</g>
</svg>
